<svg id="Capa_1" enable-background="new 0 0 512 512" height="512" viewBox="0 0 512 512" width="512" xmlns="http://www.w3.org/2000/svg" xmlns:xlink="http://www.w3.org/1999/xlink"><linearGradient id="SVGID_1_" gradientUnits="userSpaceOnUse" x1="12.034" x2="499.966" y1="256" y2="256"><stop offset=".0485" stop-color="#ffdbed"/><stop offset=".9993" stop-color="#d2deff"/></linearGradient><linearGradient id="SVGID_2_" gradientUnits="userSpaceOnUse" x1="256" x2="256" y1="167.953" y2="255.472"><stop offset=".0028" stop-color="#ff7eb8" stop-opacity="0"/><stop offset="1" stop-color="#ff7eb8" stop-opacity=".6"/></linearGradient><g><g><path d="m286.593 4.867c-94.351 27.746-75.427 93.585-85.98 166.539-13.171 91.052-70.095 44.365-135.496 93.538-113.054 85.001-30.931 272.636 109.468 244.14 74.552-15.131 89.786-70.095 120.193-128.824 39.333-75.973 104.558-55.26 163.066-104.857 118.655-100.582-37.403-309.897-171.251-270.536z" fill="url(#SVGID_1_)"/></g><g><g><g><g><path d="m190.719 174.906c7.389 7.389 8.892 18.424 4.513 27.301-8.877 4.379-19.917 2.881-27.306-4.508-7.384-7.384-8.882-18.424-4.503-27.301 8.877-4.379 19.912-2.877 27.296 4.508z" fill="#00d890"/><path d="m91.909 252.139 49.007-55.731c1.898-2.159 4.635-3.396 7.51-3.396h35.821c2.652 0 5.196-1.054 7.071-2.929l19.201-19.201c1.875-1.875 4.419-2.929 7.071-2.929h70.384c2.652 0 5.196 1.053 7.071 2.929l11.79 11.79c1.875 1.875 4.419 2.929 7.071 2.929h32.17c2.652 0 5.196 1.054 7.071 2.929l66.943 66.943z" fill="#02ffb3"/><g><path d="m221.129 248.718c-7.521 7.521-18.753 9.05-27.788 4.593-4.457-9.035-2.932-20.273 4.588-27.793 7.516-7.516 18.753-9.04 27.788-4.583 4.457 9.035 2.927 20.267-4.588 27.783z" fill="#00d890"/></g><ellipse cx="283.244" cy="203.898" fill="#ff7eb8" rx="13.477" ry="13.477" transform="matrix(.23 -.973 .973 .23 19.724 432.719)"/><path d="m274.958 226.42h-21.159c-2.761 0-5-2.239-5-5v-8.089c0-2.761 2.239-5 5-5h21.159c2.761 0 5 2.239 5 5v8.089c0 2.762-2.238 5-5 5z" fill="#ffdbed"/><g><path d="m229.882 199.701h-5.015c-2.761 0-5-2.238-5-5s2.239-5 5-5h5.015c2.761 0 5 2.238 5 5s-2.238 5-5 5z" fill="#8399fe"/></g><g><path d="m313.244 231.42h-5.015c-2.761 0-5-2.238-5-5s2.239-5 5-5h5.015c2.761 0 5 2.238 5 5s-2.239 5-5 5z" fill="#dcfdee"/></g><g><path d="m181.834 222.376h-5.015c-2.761 0-5-2.238-5-5s2.239-5 5-5h5.015c2.761 0 5 2.238 5 5 0 2.761-2.239 5-5 5z" fill="#6583fe"/></g><path d="m91.909 252.139 49.007-55.731c1.898-2.159 4.635-3.396 7.51-3.396h35.821c2.652 0 5.196-1.054 7.071-2.929l19.201-19.201c1.875-1.875 4.419-2.929 7.071-2.929h70.384c2.652 0 5.196 1.053 7.071 2.929l11.79 11.79c1.875 1.875 4.419 2.929 7.071 2.929h32.17c2.652 0 5.196 1.054 7.071 2.929l66.943 66.943z" fill="url(#SVGID_2_)"/><path d="m360.786 210.418c-7.389 7.389-18.424 8.891-27.301 4.513-4.379-8.877-2.881-19.917 4.508-27.306 7.384-7.384 18.424-8.882 27.301-4.503 4.379 8.877 2.876 19.912-4.508 27.296z" fill="#00d890"/><path d="m144.586 215.13-8.929 8.929c-1.953 1.953-5.118 1.953-7.071 0l-16.024-16.024c-1.953-1.953-1.953-5.118 0-7.071l8.929-8.929c1.953-1.953 5.118-1.953 7.071 0l16.024 16.024c1.953 1.952 1.953 5.118 0 7.071z" fill="#ff7eb8"/><g><path d="m389.937 439.074 28.026-153.878h-323.926l28.026 153.878z" fill="#ff7eb8"/><ellipse cx="256" cy="355.857" fill="#ff5ba8" rx="62.244" ry="62.244" transform="matrix(.707 -.707 .707 .707 -176.649 285.248)"/><path d="m413.834 307.867 4.129-22.671h-323.926l4.129 22.671z" fill="#ff5ba8"/><path d="m429.444 285.196h-346.888c-2.761 0-5-2.239-5-5v-27.019c0-2.761 2.239-5 5-5h346.889c2.761 0 5 2.239 5 5v27.019c-.001 2.761-2.239 5-5.001 5z" fill="#ffc4df"/><g><path d="m148.452 449.908h-20.244c-2.416 0-4.486-1.727-4.919-4.104l-29.252-160.608h30.408l28.926 158.816c.559 3.07-1.799 5.896-4.919 5.896z" fill="#ffc4df"/><path d="m128.574 307.867-4.129-22.671h-30.408l4.129 22.671z" fill="#ffa8cf"/><path d="m363.548 449.908h20.244c2.416 0 4.486-1.727 4.919-4.104l29.253-160.608h-30.408l-28.926 158.816c-.56 3.07 1.798 5.896 4.918 5.896z" fill="#ffc4df"/><g><path d="m413.834 307.867 4.129-22.671h-30.408l-4.129 22.671z" fill="#ffa8cf"/></g></g><g><path d="m271.2 285.197v159.71c0 2.76-2.23 5-5 5h-20.4c-2.77 0-5-2.24-5-5v-159.71z" fill="#ffc4df"/></g><path d="m271.2 295.487v120.75c-4.87 1.22-9.96 1.87-15.2 1.87s-10.33-.65-15.2-1.87v-120.75c4.87-1.22 9.96-1.87 15.2-1.87s10.33.65 15.2 1.87z" fill="#ffa8cf"/><g><path d="m240.796 285.196h30.408v22.671h-30.408z" fill="#ffa8cf"/></g><g><ellipse cx="256" cy="334.857" fill="#fff" rx="62.244" ry="62.244" transform="matrix(.707 -.707 .707 .707 -161.799 279.097)"/><g><path d="m282.118 329.791c0 16.933-10.923 31.299-26.112 36.454-15.189-5.154-26.123-19.521-26.123-36.454 0-16.922 10.934-31.289 26.123-36.443 15.189 5.154 26.112 19.521 26.112 36.443z" fill="#02ffb3"/><g><path d="m256 375.488c-2.761 0-5-2.239-5-5v-50.745c0-2.761 2.239-5 5-5s5 2.239 5 5v50.745c0 2.761-2.239 5-5 5z" fill="#00b574"/></g></g></g></g></g><g><path d="m222.088 66.406c-22.431-9.401-47.528-2.908-62.789 14.351-1.605 22.983 11.356 45.444 33.787 54.846 22.417 9.396 47.519 2.888 62.781-14.372 1.605-22.983-11.362-45.43-33.779-54.825z" fill="#02ffb3"/><g><g><path d="m289.912 66.406c22.431-9.401 47.528-2.908 62.789 14.351 1.605 22.983-11.356 45.444-33.787 54.846-22.417 9.396-47.519 2.888-62.781-14.372-1.605-22.983 11.362-45.43 33.779-54.825z" fill="#02ffb3"/><path d="m331.057 89.829c-1.068-2.548-3.998-3.745-6.544-2.679l-27.107 11.361 1.314-7.127c.501-2.716-1.294-5.323-4.01-5.824-2.715-.504-5.323 1.295-5.824 4.01l-2.501 13.56-30.385 12.736-30.385-12.735-2.501-13.56c-.501-2.716-3.11-4.515-5.824-4.01-2.716.501-4.511 3.108-4.01 5.824l1.314 7.127-27.107-11.362c-2.545-1.066-5.476.132-6.544 2.679-1.067 2.547.132 5.477 2.679 6.544l11.203 4.696-4.76 3.582c-2.207 1.66-2.65 4.795-.99 7.001.983 1.307 2.482 1.994 3.999 1.994 1.046 0 2.102-.327 3.002-1.005l9.43-7.095 45.494 19.067v43.34h10v-43.34l45.493-19.068 9.43 7.095c.9.678 1.956 1.005 3.002 1.005 1.518 0 3.017-.688 4-1.994 1.66-2.206 1.217-5.341-.99-7.001l-4.76-3.582 11.203-4.696c2.547-1.066 3.746-3.996 2.679-6.543z" fill="#00b574"/></g></g></g></g></g><path d="m119.909 138.909c-2.761 0-5-2.238-5-5 0-3.309-2.691-6-6-6-2.761 0-5-2.238-5-5s2.239-5 5-5c3.309 0 6-2.691 6-6 0-2.762 2.239-5 5-5s5 2.238 5 5c0 3.309 2.691 6 6 6 2.761 0 5 2.238 5 5s-2.239 5-5 5c-3.309 0-6 2.691-6 6 0 2.762-2.239 5-5 5z" fill="#01eca5"/><path d="m75.556 199.701c-2.761 0-5-2.238-5-5 0-3.309-2.691-6-6-6-2.761 0-5-2.238-5-5s2.239-5 5-5c3.309 0 6-2.691 6-6 0-2.762 2.239-5 5-5s5 2.238 5 5c0 3.309 2.691 6 6 6 2.761 0 5 2.238 5 5s-2.239 5-5 5c-3.309 0-6 2.691-6 6 0 2.762-2.239 5-5 5z" fill="#ff7eb8"/><path d="m418.722 199.701c-1.28 0-2.559-.488-3.536-1.464-1.953-1.953-1.953-5.119 0-7.071l3.328-3.328-5.003-3.173c-1.282-.813-2.125-2.165-2.292-3.674s.361-3.011 1.434-4.084l7.742-7.742c1.954-1.951 5.119-1.951 7.071.001 1.953 1.952 1.953 5.118 0 7.071l-3.328 3.326 5.003 3.173c1.282.814 2.125 2.165 2.292 3.673.167 1.509-.361 3.012-1.434 4.085l-7.742 7.742c-.975.977-2.255 1.465-3.535 1.465z" fill="#6583fe"/><path d="m436.977 434.102c-1.28 0-2.559-.488-3.536-1.465-1.953-1.952-1.953-5.118 0-7.071l3.328-3.326-5.003-3.173c-1.282-.813-2.125-2.165-2.292-3.674-.167-1.508.361-3.011 1.434-4.084l7.742-7.742c1.953-1.953 5.118-1.953 7.071 0 1.953 1.952 1.953 5.118 0 7.07l-3.328 3.328 5.003 3.173c1.282.814 2.125 2.165 2.292 3.674s-.361 3.011-1.434 4.084l-7.742 7.742c-.976.975-2.256 1.464-3.535 1.464z" fill="#01eca5"/><path d="m80.951 111.001c-1.28 0-2.559-.488-3.536-1.465-1.953-1.952-1.953-5.118 0-7.07l3.328-3.328-5.003-3.173c-1.282-.813-2.124-2.165-2.291-3.673-.167-1.509.361-3.012 1.434-4.085l7.742-7.742c1.953-1.953 5.118-1.953 7.071 0 1.953 1.952 1.953 5.118 0 7.07l-3.328 3.328 5.003 3.173c1.282.813 2.124 2.165 2.291 3.674.167 1.508-.361 3.011-1.434 4.084l-7.742 7.742c-.976.977-2.256 1.465-3.535 1.465z" fill="#ff7eb8"/></g></g></svg>