<svg id="Capa_1" enable-background="new 0 0 512 512" height="512" viewBox="0 0 512 512" width="512" xmlns="http://www.w3.org/2000/svg"><g><path d="m453.773 174.341c-4.442-4.442-10.577-6.144-16.327-5.131-6.648 6.648-4.311 16.885.131 21.327 11.694 11.694 23.363 18.489 27.052 27.003 2.822-13.795 2.078-30.266-10.856-43.199z" fill="#cde2ff"/><path d="m437.446 169.21c-3.917.69-7.657 2.632-10.557 5.857-6.582 7.318-6.075 18.677.869 25.652 13.853 13.915 20.609 27.952 23.707 36.405 1.067 2.912 5.128 3.085 6.445.277 2.333-4.975 5.109-11.981 6.72-19.86-3.689-8.514-10.358-20.309-22.052-32.003-4.443-4.443-6.146-10.578-5.132-16.328z" fill="#9ec8fc"/><path d="m184.85 50.561c-6.61 6.61-5.613 18.759-.509 23.863 7.234 7.234 17.644 5.613 26.196 0 8.267-5.426 20.718-15.671 25.361-21.021-11.819-5.306-32.979-12-51.048-2.842z" fill="#cde2ff"/><path d="m189.669 69.744c-5.368-5.114-6.962-12.626-4.819-19.183-3.373 1.709-6.639 3.966-9.716 6.892-7.645 7.272-8.249 19.529-.781 26.983 7.235 7.221 18.954 7.217 26.183-.013 13.965-13.965 28.076-20.766 36.568-23.881 2.924-1.072 3.112-5.13.293-6.453-.481-.226-.981-.456-1.499-.688-6.233 3.771-13.127 8.851-20 15.662-7.202 7.138-18.888 7.675-26.229.681z" fill="#9ec8fc"/><path d="m84.423 311.463c-11.694-11.694-18.363-23.489-22.052-32.003-7.141 12.769-7.078 35.265 5.856 48.199 4.442 4.442 14.977 6.481 21.327.131 1.014-5.75-.689-11.885-5.131-16.327z" fill="#cde2ff"/><path d="m73.227 322.659c-12.934-12.934-13.678-29.404-10.856-43.199-.718-1.657-1.323-3.189-1.83-4.572-1.073-2.926-5.132-3.101-6.455-.28-6.36 13.561-15.998 42.203 3.59 62.491 7.131 7.385 19.032 7.948 26.45.851 2.969-2.84 4.769-6.419 5.428-10.16-5.75 1.013-11.885-.689-16.327-5.131z" fill="#9ec8fc"/><path d="m337.659 427.577c-7.234-7.234-18.962-7.234-26.196 0-6.992 6.992-14.019 12.184-20.361 16.021 6.314 12.815 30.837 23.053 51.049 2.841 2.098-6.421.612-13.758-4.492-18.862z" fill="#cde2ff"/><path d="m291.102 443.598c-6.337 3.834-11.989 6.312-16.232 7.867-2.913 1.068-3.075 5.129-.267 6.446 13.684 6.419 42.737 16.181 63.056-4.138 2.13-2.13 3.615-4.654 4.491-7.334-18.069 9.158-39.229 2.464-51.048-2.841z" fill="#9ec8fc"/><path d="m134.791 66.371c-5.164-7.375-13.118-12.425-21.325-13.931 1.392-8.227-.633-17.429-5.797-24.803-9.474-13.531-31.936-22.274-56.649-9.256-29.046 20.339-35.061 62.415-16.305 89.202s62.28 34.175 89.398 15.187c20.686-18.771 20.152-42.868 10.678-56.399z" fill="#abd4b9"/><path d="m41.666 102.716c-18.756-26.787-14.215-62.899 9.355-84.335-2.473 1.303-4.968 2.817-7.476 4.573-29.071 20.356-36.136 60.424-15.78 89.496 20.356 29.071 60.424 36.136 89.495 15.78 2.507-1.756 4.784-3.582 6.854-5.461-28.205 14.817-63.691 6.734-82.448-20.053z" fill="#7fbd93"/><path d="m484.235 399.55c-18.757-26.787-54.243-34.87-82.448-20.054-27.508 19.262-27.102 47.734-17.628 61.265 5.164 7.375 13.118 12.425 21.325 13.931-1.392 8.227.633 17.429 5.797 24.803 9.474 13.531 40.842 20.324 63.599 4.389 23.57-21.435 28.112-57.547 9.355-84.334z" fill="#abd4b9"/><path d="m418.232 474.629c-5.164-7.375-7.189-16.577-5.797-24.803-8.207-1.506-16.161-6.556-21.325-13.931-9.474-13.531-10.008-37.628 10.677-56.398-2.405 1.263-4.763 2.674-7.048 4.273-27.563 19.3-27.953 46.974-17.531 61.859 5.164 7.375 13.118 12.425 21.325 13.931-1.392 8.227.633 17.429 5.797 24.803 10.422 14.885 36.561 23.983 64.124 4.683 2.284-1.599 4.416-3.333 6.426-5.161-24.712 13.017-47.174 4.274-56.648-9.256z" fill="#7fbd93"/><path d="m128.23 394.74c-19.3-27.563-46.974-27.953-61.859-17.531-7.375 5.164-12.425 13.118-13.931 21.325-5.553-.939-11.549-.316-17.129 1.773-16.453 11.52-21.811 39.853-5.406 63.281 18.705 26.713 58.31 36.914 89.165 15.309 23.4-21.457 27.865-57.444 9.16-84.157z" fill="#abd4b9"/><path d="m36.856 458.721c-16.405-23.428-12.288-45.821-1.544-58.414-2.686 1.006-5.277 2.346-7.674 4.024-14.885 10.422-23.983 36.561-4.683 64.124 20.356 29.071 60.424 36.136 89.495 15.78 2.358-1.651 4.555-3.444 6.621-5.338-28.167 14.65-63.511 6.537-82.215-20.176z" fill="#7fbd93"/><path d="m489.046 43.545c19.3 27.563 10.202 53.702-4.683 64.124-7.375 5.164-16.577 7.189-24.803 5.797-1.017 5.54-3.653 10.961-7.524 15.49-16.453 11.52-44.909 6.865-61.314-16.563-18.705-26.713-14.745-67.419 16.11-89.024 28.166-14.65 63.509-6.537 82.214 20.176z" fill="#abd4b9"/><g fill="#7fbd93"><path d="m397.671 107.526c16.405 23.428 38.855 27.219 54.363 21.43-1.864 2.18-4.01 4.157-6.406 5.835-14.885 10.422-42.559 10.032-61.859-17.531-20.356-29.071-13.291-69.14 15.78-89.495 2.358-1.651 4.794-3.103 7.281-4.396-23.399 21.458-27.863 57.444-9.159 84.157z"/><path d="m256 512c-35.474 0-69.82-7.121-102.085-21.166-3.798-1.653-5.536-6.072-3.883-9.87 1.653-3.797 6.07-5.534 9.87-3.884 30.365 13.218 62.697 19.92 96.098 19.92 49.787 0 97.585-15.07 138.227-43.58l18.823-13.181c3.392-2.376 8.069-1.552 10.445 1.842 2.376 3.393 1.551 8.069-1.842 10.445l-18.818 13.177c-43.173 30.286-93.949 46.297-146.835 46.297z"/><path d="m483.953 362.594c-.999 0-2.015-.201-2.99-.625-3.798-1.653-5.536-6.072-3.883-9.87 13.218-30.366 19.92-62.698 19.92-96.099 0-49.786-15.07-97.584-43.581-138.227l-13.18-18.823c-2.376-3.393-1.551-8.069 1.842-10.445s8.07-1.552 10.445 1.842l13.176 18.817c30.287 43.174 46.298 93.951 46.298 146.836 0 35.474-7.122 69.82-21.166 102.085-1.229 2.823-3.986 4.509-6.881 4.509z"/><path d="m94.655 73.118c-2.364 0-4.691-1.115-6.15-3.199-2.376-3.393-1.551-8.069 1.842-10.445l18.818-13.177c43.173-30.286 93.949-46.297 146.835-46.297 35.474 0 69.82 7.121 102.085 21.166 3.798 1.653 5.536 6.072 3.883 9.87-1.652 3.799-6.069 5.536-9.87 3.884-30.365-13.218-62.697-19.92-96.098-19.92-49.787 0-97.585 15.07-138.227 43.58l-18.823 13.181c-1.309.917-2.809 1.357-4.295 1.357z"/><path d="m65.624 424.853c-2.364 0-4.691-1.115-6.15-3.199l-13.176-18.817c-30.287-43.175-46.298-93.952-46.298-146.837 0-35.474 7.122-69.82 21.166-102.085 1.654-3.798 6.07-5.535 9.871-3.884 3.798 1.653 5.536 6.072 3.883 9.87-13.218 30.366-19.92 62.698-19.92 96.099 0 49.786 15.07 97.584 43.581 138.227l13.18 18.823c2.376 3.393 1.551 8.069-1.842 10.445-1.309.917-2.81 1.358-4.295 1.358z"/></g></g></svg>